<svg width="21" height="21" viewBox="0 0 21 21" fill="none" xmlns="http://www.w3.org/2000/svg">
<path d="M19.7041 11.91C19.7941 13.46 19.0841 14.95 17.8141 15.86L18.5841 17.35C18.8141 17.8 18.8441 18.33 18.6441 18.8C18.4541 19.27 18.0641 19.64 17.5841 19.8L16.7941 20.05C16.4651 20.1608 16.11 20.1675 15.7771 20.069C15.4443 19.9706 15.1499 19.7719 14.9341 19.5L12.8141 17C11.9241 16.85 11.0841 16.47 10.3741 15.9C9.87408 16.05 9.37408 16.13 8.87408 16.13C7.99408 16.13 7.11408 15.86 6.37408 15.34C5.84408 15.5 5.30408 15.57 4.75408 15.56C3.96408 15.57 3.18408 15.41 2.45408 15.11C1.75142 14.7965 1.15102 14.2918 0.721361 13.6535C0.291704 13.0152 0.0500908 12.269 0.0240806 11.5C-0.0559194 10.78 0.0640806 10.05 0.374081 9.39001C0.0840806 8.64001 0.0540806 7.82001 0.304081 7.06001C0.674081 6.11001 1.37408 5.32001 2.24408 4.82001C2.82408 3.13001 4.45408 2.00001 6.24408 2.12001C7.84408 0.62001 10.2941 0.460011 12.0741 1.75001C12.4941 1.64001 12.9341 1.58001 13.3741 1.58001C14.7341 1.55001 16.0241 2.15001 16.8741 3.22001C18.9141 3.75001 20.3741 5.57001 20.4541 7.69001C20.5041 8.80001 20.2041 9.89001 19.5941 10.82C19.6641 11.18 19.7041 11.54 19.7041 11.91ZM14.7041 10.5C15.2741 10.57 15.7241 11 15.7241 11.57C15.7241 11.8352 15.6187 12.0896 15.4312 12.2771C15.2437 12.4647 14.9893 12.57 14.7241 12.57H14.0941C13.7741 13.47 13.2141 14.26 12.4741 14.86C12.7241 14.95 12.9841 15 13.2441 15.07C18.3741 15 17.7741 11.87 17.7741 11.82C17.7475 11.1331 17.4492 10.4849 16.9448 10.0179C16.4403 9.55095 15.771 9.30351 15.0841 9.33001C14.8189 9.33001 14.5645 9.22465 14.377 9.03712C14.1894 8.84958 14.0841 8.59523 14.0841 8.33001C14.0841 8.06479 14.1894 7.81044 14.377 7.6229C14.5645 7.43537 14.8189 7.33001 15.0841 7.33001C16.3141 7.36001 17.4941 7.82001 18.4141 8.63001C18.4641 8.34001 18.4941 8.04001 18.4941 7.74001C18.4341 6.50001 17.8741 5.42001 15.6241 5.21001C14.3741 2.25001 11.2241 3.89001 11.2241 4.81001C11.1941 5.04001 11.4341 5.53001 11.4741 5.56001C11.7393 5.56001 11.9937 5.66537 12.1812 5.8529C12.3687 6.04044 12.4741 6.29479 12.4741 6.56001C12.4741 7.11001 12.0241 7.56001 11.4741 7.56001C10.9441 7.54001 10.4441 7.34001 10.0441 7.00001C9.56408 7.31001 9.01408 7.50001 8.44408 7.56001C7.87408 7.61001 7.40408 7.21001 7.37408 6.66001C7.35566 6.52938 7.36413 6.39637 7.39897 6.26913C7.43382 6.1419 7.4943 6.02313 7.57671 5.92012C7.65912 5.8171 7.76172 5.73202 7.8782 5.6701C7.99468 5.60817 8.12259 5.57071 8.25408 5.56001C8.41408 5.54001 9.19408 5.42001 9.19408 4.79001C9.19408 4.13001 9.44408 3.50001 9.87408 3.00001C8.95408 2.75001 7.96408 3.08001 6.96408 4.29001C5.12408 4.00001 4.37408 4.25001 3.82408 6.20001C2.87408 6.67001 2.37408 7.00001 2.15408 8.00001C3.23408 7.78001 4.34408 7.87001 5.37408 8.25001C5.87408 8.44001 6.15408 9.00001 5.96408 9.54001C5.77408 10.06 5.19408 10.32 4.67408 10.13C3.94408 9.81001 3.12408 9.79001 2.37408 10.07C2.05408 10.34 2.05408 10.9 2.05408 11.34C2.05408 12.08 2.42408 12.77 3.05408 13.17C3.58408 13.44 4.17408 13.58 4.76408 13.57C4.61408 13.31 4.48408 13.04 4.37408 12.76C4.29536 12.5031 4.31934 12.2256 4.44098 11.986C4.56262 11.7464 4.77244 11.5633 5.02631 11.4753C5.28018 11.3872 5.55831 11.401 5.80221 11.5138C6.04611 11.6266 6.23677 11.8295 6.33408 12.08C6.73408 13.22 7.75408 14 8.95408 14.13C10.3241 14.06 11.5441 13.25 12.1441 12C12.3741 10.62 13.4841 10.5 14.7041 10.5ZM16.7041 17.97L16.0841 16.67L15.3741 16.83L16.3741 18.08L16.7041 17.97ZM12.0541 9.36001C12.0628 9.10455 11.9733 8.85546 11.8041 8.6639C11.6348 8.47234 11.3987 8.35287 11.1441 8.33001C10.4341 8.29001 9.74408 8.53001 9.21408 9.00001C8.64408 9.58001 8.34408 10.38 8.37408 11.19C8.37408 11.4552 8.47944 11.7096 8.66697 11.8971C8.85451 12.0847 9.10886 12.19 9.37408 12.19C9.94408 12.19 10.3741 11.74 10.3741 11.19C10.3741 10.92 10.4441 10.65 10.6041 10.43C10.7241 10.33 10.8741 10.28 11.0341 10.28C11.5841 10.31 12.0541 9.90001 12.0541 9.36001Z" fill="#F6455Cff"/>
</svg>
