<svg width="18" height="18" viewBox="0 0 18 18" fill="none" xmlns="http://www.w3.org/2000/svg">
<path d="M3.92 2H2L11 11L12 10.06M16.96 16.12L16.12 16.96C16.0275 17.0527 15.9176 17.1262 15.7966 17.1764C15.6757 17.2266 15.546 17.2524 15.415 17.2524C15.284 17.2524 15.1543 17.2266 15.0334 17.1764C14.9124 17.1262 14.8025 17.0527 14.71 16.96L11.59 13.84L8.91 16.5L7.5 15.09L8.92 13.67L0 4.75V0H4.75L13.67 8.92L15.09 7.5L16.5 8.91L13.83 11.58L16.95 14.7C17.35 15.1 17.35 15.73 16.96 16.12Z" fill="#343434"/>
</svg>
