<svg width="128" height="128" viewBox="0 0 128 128" fill="none" xmlns="http://www.w3.org/2000/svg">
<rect x="2" y="2" width="124" height="124" rx="13" fill="#F5F3F4" stroke="#A4161A" stroke-width="4"/>
<circle cx="34" cy="34" r="10" fill="#A4161A"/>
<path d="M44 94C44 99.5228 39.5228 104 34 104C28.4772 104 24 99.5228 24 94C24 88.4772 28.4772 84 34 84C39.5228 84 44 88.4772 44 94Z" fill="#A4161A"/>
<circle cx="95" cy="34" r="10" fill="#A4161A"/>
<path d="M105 94C105 99.5228 100.523 104 95 104C89.4772 104 85 99.5228 85 94C85 88.4772 89.4772 84 95 84C100.523 84 105 88.4772 105 94Z" fill="#A4161A"/>
<circle cx="34" cy="64" r="10" fill="#A4161A"/>
<circle cx="95" cy="64" r="10" fill="#A4161A"/>
<path d="M104.326 86.9346C104.458 86.8346 104.646 86.8603 104.743 86.9949C106.538 89.4913 107.309 92.5858 106.887 95.6394C106.453 98.7921 104.783 101.643 102.247 103.565C99.7097 105.487 96.5134 106.322 93.3606 105.887C90.3071 105.466 87.5366 103.887 85.6192 101.483C85.5159 101.354 85.5421 101.165 85.6742 101.065V101.065C85.8063 100.965 85.9941 100.992 86.0976 101.121C87.9188 103.398 90.5467 104.894 93.4426 105.293C96.4377 105.706 99.4743 104.912 101.884 103.087C104.294 101.261 105.88 98.5525 106.293 95.5574C106.692 92.6615 105.964 89.7269 104.265 87.3573C104.168 87.2227 104.194 87.0347 104.326 86.9346V86.9346Z" fill="#161A1D"/>
<path d="M104.326 56.9346C104.458 56.8346 104.646 56.8603 104.743 56.9949C106.538 59.4913 107.309 62.5858 106.887 65.6394C106.453 68.7921 104.783 71.643 102.247 73.5649C99.7097 75.4868 96.5134 76.3223 93.3606 75.8875C90.3071 75.4664 87.5366 73.8871 85.6192 71.4834C85.5159 71.3538 85.5421 71.1654 85.6742 71.0654V71.0654C85.8063 70.9653 85.9941 70.9915 86.0976 71.1209C87.9188 73.3979 90.5467 74.8937 93.4426 75.2931C96.4377 75.7062 99.4743 74.9125 101.884 73.0867C104.294 71.2609 105.88 68.5525 106.293 65.5574C106.692 62.6615 105.964 59.7269 104.265 57.3573C104.168 57.2227 104.194 57.0347 104.326 56.9346V56.9346Z" fill="#161A1D"/>
<path d="M104.326 26.9346C104.458 26.8346 104.646 26.8603 104.743 26.9949C106.538 29.4913 107.309 32.5858 106.887 35.6394C106.453 38.7921 104.783 41.643 102.247 43.5649C99.7097 45.4868 96.5134 46.3223 93.3606 45.8875C90.3071 45.4664 87.5366 43.8871 85.6192 41.4834C85.5159 41.3538 85.5421 41.1654 85.6742 41.0654V41.0654C85.8063 40.9653 85.9941 40.9915 86.0976 41.1209C87.9188 43.3979 90.5467 44.8937 93.4426 45.2931C96.4377 45.7062 99.4743 44.9125 101.884 43.0867C104.294 41.2609 105.88 38.5525 106.293 35.5574C106.692 32.6615 105.964 29.7269 104.265 27.3573C104.168 27.2227 104.194 27.0347 104.326 26.9346V26.9346Z" fill="#161A1D"/>
<path d="M43.3258 26.9346C43.4579 26.8346 43.6464 26.8603 43.7431 26.9949C45.5381 29.4913 46.3086 32.5858 45.8875 35.6394C45.4527 38.7921 43.7833 41.643 41.2465 43.5649C38.7097 45.4868 35.5134 46.3223 32.3606 45.8875C29.3071 45.4664 26.5366 43.8871 24.6192 41.4834C24.5159 41.3538 24.5421 41.1654 24.6742 41.0654V41.0654C24.8063 40.9653 24.9941 40.9915 25.0976 41.1209C26.9188 43.3979 29.5467 44.8937 32.4426 45.2931C35.4377 45.7062 38.4743 44.9125 40.8842 43.0867C43.2941 41.2609 44.8801 38.5525 45.2931 35.5574C45.6925 32.6615 44.9637 29.7269 43.2647 27.3573C43.1682 27.2227 43.1937 27.0347 43.3258 26.9346V26.9346Z" fill="#161A1D"/>
<path d="M43.3258 56.9346C43.4579 56.8346 43.6464 56.8603 43.7431 56.9949C45.5381 59.4913 46.3086 62.5858 45.8875 65.6394C45.4527 68.7921 43.7833 71.643 41.2465 73.5649C38.7097 75.4868 35.5134 76.3223 32.3606 75.8875C29.3071 75.4664 26.5366 73.8871 24.6192 71.4834C24.5159 71.3538 24.5421 71.1654 24.6742 71.0654V71.0654C24.8063 70.9653 24.9941 70.9915 25.0976 71.1209C26.9188 73.3979 29.5467 74.8937 32.4426 75.2931C35.4377 75.7062 38.4743 74.9125 40.8842 73.0867C43.2941 71.2609 44.8801 68.5525 45.2931 65.5574C45.6925 62.6615 44.9637 59.7269 43.2647 57.3573C43.1682 57.2227 43.1937 57.0347 43.3258 56.9346V56.9346Z" fill="#161A1D"/>
<path d="M43.3258 86.9346C43.4579 86.8346 43.6464 86.8603 43.7431 86.9949C45.5381 89.4913 46.3086 92.5858 45.8875 95.6394C45.4527 98.7921 43.7833 101.643 41.2465 103.565C38.7097 105.487 35.5134 106.322 32.3606 105.887C29.3071 105.466 26.5366 103.887 24.6192 101.483C24.5159 101.354 24.5421 101.165 24.6742 101.065V101.065C24.8063 100.965 24.9941 100.992 25.0976 101.121C26.9188 103.398 29.5467 104.894 32.4426 105.293C35.4377 105.706 38.4743 104.912 40.8842 103.087C43.2941 101.261 44.8801 98.5525 45.2931 95.5574C45.6925 92.6615 44.9637 89.7269 43.2647 87.3573C43.1682 87.2227 43.1937 87.0347 43.3258 86.9346V86.9346Z" fill="#161A1D"/>
</svg>
