<svg width="20" height="20" viewBox="0 0 19 20" fill="none" xmlns="http://www.w3.org/2000/svg">
<g filter="url(#filter0_d_25_75)">
<path d="M10.7907 2.97674C11.1854 2.97674 11.564 2.81993 11.8431 2.54081C12.1223 2.26169 12.2791 1.88311 12.2791 1.48837C12.2791 1.09363 12.1223 0.715058 11.8431 0.435934C11.564 0.15681 11.1854 0 10.7907 0C10.396 0 10.0174 0.15681 9.73826 0.435934C9.45914 0.715058 9.30233 1.09363 9.30233 1.48837C9.30233 1.88311 9.45914 2.26169 9.73826 2.54081C10.0174 2.81993 10.396 2.97674 10.7907 2.97674ZM8.11163 13.3209L8.85581 10.0465L10.4186 11.5349V16H11.907V10.4186L10.3442 8.93023L10.7907 6.69767C11.3006 7.28203 11.9296 7.75042 12.6357 8.07133C13.3417 8.39225 14.1082 8.55824 14.8837 8.55814V7.06977C13.574 7.09209 12.3535 6.40744 11.6837 5.28372L10.9395 4.09302C10.6716 3.64651 10.1953 3.34884 9.67442 3.34884C9.45116 3.34884 9.30233 3.42326 9.07907 3.42326L5.2093 5.06047V8.55814H6.69767V6.02791L8.03721 5.50698L6.84651 11.5349L3.2 10.7907L2.90233 12.2791L8.11163 13.3209ZM1.48837 5.5814C1.291 5.5814 1.10171 5.50299 0.962153 5.36343C0.822591 5.22387 0.744186 5.03458 0.744186 4.83721C0.744186 4.63984 0.822591 4.45055 0.962153 4.31099C1.10171 4.17143 1.291 4.09302 1.48837 4.09302H3.72093V5.5814H1.48837ZM2.23256 2.60465C2.03519 2.60465 1.8459 2.52625 1.70634 2.38668C1.56678 2.24712 1.48837 2.05784 1.48837 1.86047C1.48837 1.66309 1.56678 1.47381 1.70634 1.33425C1.8459 1.19468 2.03519 1.11628 2.23256 1.11628H5.95349V2.60465H2.23256ZM0.744186 8.55814C0.546816 8.55814 0.357529 8.47973 0.217967 8.34017C0.0784051 8.20061 0 8.01132 0 7.81395C0 7.61658 0.0784051 7.4273 0.217967 7.28773C0.357529 7.14817 0.546816 7.06977 0.744186 7.06977H3.72093V8.55814H0.744186Z" fill="#343434"/>
</g>
<defs>
<filter id="filter0_d_25_75" x="0" y="0" width="18.8837" height="20" filterUnits="userSpaceOnUse" color-interpolation-filters="sRGB">
<feFlood flood-opacity="0" result="BackgroundImageFix"/>
<feColorMatrix in="SourceAlpha" type="matrix" values="0 0 0 0 0 0 0 0 0 0 0 0 0 0 0 0 0 0 127 0" result="hardAlpha"/>
<feOffset dx="2" dy="2"/>
<feGaussianBlur stdDeviation="1"/>
<feComposite in2="hardAlpha" operator="out"/>
<feColorMatrix type="matrix" values="0 0 0 0 0 0 0 0 0 0 0 0 0 0 0 0 0 0 0.25 0"/>
<feBlend mode="normal" in2="BackgroundImageFix" result="effect1_dropShadow_25_75"/>
<feBlend mode="normal" in="SourceGraphic" in2="effect1_dropShadow_25_75" result="shape"/>
</filter>
</defs>
</svg>
