<svg width="24" height="24" viewBox="0 0 24 24" fill="none" xmlns="http://www.w3.org/2000/svg">
<path d="M0.293232 1.70908C0.200266 1.61612 0.126522 1.50575 0.0762087 1.38428C0.0258958 1.26282 9.79557e-10 1.13263 0 1.00116C-9.79557e-10 0.869684 0.0258958 0.739497 0.0762087 0.618031C0.126522 0.496565 0.200266 0.386198 0.293232 0.293232C0.386198 0.200266 0.496565 0.126522 0.618031 0.0762087C0.739497 0.0258958 0.869684 -9.79558e-10 1.00116 0C1.13263 9.79556e-10 1.26282 0.0258958 1.38428 0.0762087C1.50575 0.126522 1.61612 0.200266 1.70908 0.293232L12 10.5861L22.2909 0.293232C22.3839 0.200266 22.4942 0.126522 22.6157 0.0762087C22.7372 0.0258958 22.8674 0 22.9988 0C23.1303 0 23.2605 0.0258958 23.382 0.0762087C23.5034 0.126522 23.6138 0.200266 23.7068 0.293232C23.7997 0.386198 23.8735 0.496565 23.9238 0.618031C23.9741 0.739497 24 0.869684 24 1.00116C24 1.13263 23.9741 1.26282 23.9238 1.38428C23.8735 1.50575 23.7997 1.61612 23.7068 1.70908L13.4139 12L23.7068 22.2909C23.7997 22.3839 23.8735 22.4942 23.9238 22.6157C23.9741 22.7372 24 22.8674 24 22.9988C24 23.1303 23.9741 23.2605 23.9238 23.382C23.8735 23.5034 23.7997 23.6138 23.7068 23.7068C23.6138 23.7997 23.5034 23.8735 23.382 23.9238C23.2605 23.9741 23.1303 24 22.9988 24C22.8674 24 22.7372 23.9741 22.6157 23.9238C22.4942 23.8735 22.3839 23.7997 22.2909 23.7068L12 13.4139L1.70908 23.7068C1.61612 23.7997 1.50575 23.8735 1.38428 23.9238C1.26282 23.9741 1.13263 24 1.00116 24C0.869684 24 0.739497 23.9741 0.618031 23.9238C0.496565 23.8735 0.386198 23.7997 0.293232 23.7068C0.200266 23.6138 0.126522 23.5034 0.0762087 23.382C0.0258958 23.2605 0 23.1303 0 22.9988C0 22.8674 0.0258958 22.7372 0.0762087 22.6157C0.126522 22.4942 0.200266 22.3839 0.293232 22.2909L10.5861 12L0.293232 1.70908Z" fill="#F6455Cff"/>
</svg>
