<svg width="20" height="20" viewBox="0 0 20 20" fill="none" xmlns="http://www.w3.org/2000/svg">
<path d="M1.75517 9.29001L8.82517 2.22001C9.95201 1.09604 11.4786 0.464844 13.0702 0.464844C14.6617 0.464844 16.1883 1.09604 17.3152 2.22001C19.6552 4.56001 19.6552 8.36001 17.3152 10.71L10.2452 17.78C7.89517 20.12 4.09517 20.12 1.75517 17.78C0.631199 16.6532 0 15.1266 0 13.535C0 11.9435 0.631199 10.4169 1.75517 9.29001M3.17517 10.71C2.67641 11.2043 2.31744 11.8218 2.13477 12.4998C1.9521 13.1778 1.95224 13.8921 2.13517 14.57L8.12517 8.59001L12.3652 12.83L15.8952 9.29001C16.2682 8.92018 16.5643 8.48014 16.7664 7.99526C16.9684 7.51039 17.0725 6.9903 17.0725 6.46501C17.0725 5.93972 16.9684 5.41963 16.7664 4.93476C16.5643 4.44989 16.2682 4.00984 15.8952 3.64001C15.5253 3.26697 15.0853 2.97088 14.6004 2.76881C14.1156 2.56674 13.5955 2.4627 13.0702 2.4627C12.5449 2.4627 12.0248 2.56674 11.5399 2.76881C11.055 2.97088 10.615 3.26697 10.2452 3.64001L3.17517 10.71V10.71Z" fill="#F6455Cff"/>
</svg>
