<svg width="24" height="24" viewBox="0 0 24 24" fill="none" xmlns="http://www.w3.org/2000/svg">
<path d="M2.75299 18.0001H21.253C21.4429 18.0004 21.6257 18.0727 21.7643 18.2025C21.903 18.3323 21.9872 18.5099 22.0001 18.6994C22.0129 18.8889 21.9533 19.0762 21.8334 19.2235C21.7135 19.3708 21.5422 19.4672 21.354 19.4931L21.253 19.5001H2.75299C2.56161 19.502 2.37673 19.4307 2.23621 19.3008C2.09568 19.1709 2.01014 18.9921 1.9971 18.8012C1.98407 18.6102 2.04452 18.4215 2.16608 18.2737C2.28765 18.1259 2.46112 18.0301 2.65099 18.0061L2.75299 18.0001H21.253H2.75299ZM2.75299 11.5031H21.253C21.4429 11.5034 21.6257 11.5757 21.7643 11.7055C21.903 11.8353 21.9872 12.0129 22.0001 12.2024C22.0129 12.3919 21.9533 12.5792 21.8334 12.7265C21.7135 12.8738 21.5422 12.9702 21.354 12.9961L21.253 13.0031H2.75299C2.56161 13.005 2.37673 12.9337 2.23621 12.8038C2.09568 12.6739 2.01014 12.4951 1.9971 12.3042C1.98407 12.1132 2.04452 11.9245 2.16608 11.7767C2.28765 11.6289 2.46112 11.5331 2.65099 11.5091L2.75299 11.5031H21.253H2.75299ZM2.75199 5.00305H21.252C21.442 5.00311 21.6249 5.0753 21.7638 5.20502C21.9026 5.33475 21.9871 5.51235 22 5.70193C22.013 5.89151 21.9535 6.07894 21.8336 6.22635C21.7136 6.37376 21.5422 6.47015 21.354 6.49605L21.252 6.50305H2.75199C2.56197 6.50299 2.37905 6.43081 2.2402 6.30108C2.10135 6.17135 2.01692 5.99375 2.00396 5.80417C1.99101 5.61459 2.0505 5.42716 2.17042 5.27975C2.29034 5.13235 2.46174 5.03595 2.64999 5.01005L2.75199 5.00305H21.252H2.75199Z" fill="#38B000"/>
</svg>
