<svg width="18" height="20" viewBox="0 0 18 20" fill="none" xmlns="http://www.w3.org/2000/svg">
<path d="M7.12386 1.8105C6.78005 3.27842 6.73329 4.80027 6.98634 6.28653C7.23939 7.77278 7.78713 9.19342 8.59734 10.4649C9.40756 11.7363 10.4639 12.8328 11.7041 13.69C12.9444 14.5471 14.3436 15.1476 15.8194 15.456C15.0435 16.2588 14.1142 16.8975 13.0868 17.3343C12.0593 17.771 10.9545 17.9969 9.83811 17.9985C9.73461 17.9985 9.62961 18.0022 9.52461 17.9985C7.58089 17.93 5.72257 17.1828 4.27251 15.8866C2.82244 14.5905 1.87225 12.8273 1.58702 10.9034C1.30179 8.97951 1.69953 7.01648 2.71116 5.35536C3.72279 3.69423 5.28437 2.43998 7.12461 1.8105H7.12386ZM8.23236 0C8.18834 0.000148458 8.14442 0.00416392 8.10111 0.012C5.71357 0.436892 3.56762 1.73001 2.07643 3.6424C0.585236 5.55478 -0.145769 7.95121 0.0241568 10.3703C0.194082 12.7894 1.25292 15.0601 2.99682 16.7452C4.74072 18.4304 7.04637 19.4108 9.46986 19.4977C9.59286 19.5022 9.71586 19.4977 9.83736 19.4977C11.4116 19.4988 12.9629 19.1207 14.3601 18.3955C15.7573 17.6704 16.9594 16.6194 17.8646 15.3315C17.9379 15.2205 17.9808 15.0921 17.9887 14.9593C17.9967 14.8265 17.9696 14.694 17.91 14.575C17.8505 14.456 17.7607 14.3548 17.6496 14.2816C17.5386 14.2083 17.4102 14.1656 17.2774 14.1578C15.7791 14.0263 14.331 13.552 13.0453 12.7716C11.7595 11.9913 10.6703 10.9257 9.86204 9.65729C9.05374 8.38888 8.54792 6.95159 8.38369 5.45652C8.21945 3.96145 8.40119 2.44863 8.91486 1.035C8.95856 0.921848 8.97458 0.799892 8.9616 0.679292C8.94862 0.558692 8.90701 0.442939 8.84024 0.341676C8.77347 0.240414 8.68346 0.156574 8.57772 0.097141C8.47198 0.0377081 8.35357 0.00440287 8.23236 0V0Z" fill="#A4161A"/>
</svg>
