<svg width="32" height="32" viewBox="0 0 32 32" fill="none" xmlns="http://www.w3.org/2000/svg">
<rect width="32" height="32" rx="10" fill="#2E293D"/>
<path d="M14.1239 7.8105C13.78 9.27842 13.7333 10.8003 13.9863 12.2865C14.2394 13.7728 14.7871 15.1934 15.5973 16.4649C16.4076 17.7363 17.4639 18.8328 18.7041 19.69C19.9444 20.5471 21.3436 21.1476 22.8194 21.456C22.0435 22.2588 21.1142 22.8975 20.0868 23.3343C19.0593 23.771 17.9546 23.9969 16.8381 23.9985C16.7346 23.9985 16.6296 24.0022 16.5246 23.9985C14.5809 23.93 12.7226 23.1828 11.2725 21.8866C9.82244 20.5905 8.87225 18.8273 8.58702 16.9034C8.30179 14.9795 8.69953 13.0165 9.71116 11.3554C10.7228 9.69423 12.2836 8.43998 14.1239 7.8105ZM15.2324 6C15.1883 6.00015 15.1444 6.00416 15.1011 6.012C12.7136 6.43689 10.5676 7.73001 9.07643 9.6424C7.58524 11.5548 6.85423 13.9512 7.02416 16.3703C7.19408 18.7894 8.25292 21.0601 9.99682 22.7452C11.7407 24.4304 14.0464 25.4108 16.4699 25.4977C16.5929 25.5022 16.7159 25.4977 16.8374 25.4977C18.4116 25.4988 19.9629 25.1207 21.3601 24.3955C22.7573 23.6704 23.9594 22.6194 24.8646 21.3315C24.9379 21.2205 24.9808 21.0921 24.9887 20.9593C24.9967 20.8265 24.9696 20.694 24.91 20.575C24.8505 20.456 24.7607 20.3548 24.6496 20.2816C24.5386 20.2083 24.4102 20.1656 24.2774 20.1578C22.7791 20.0263 21.331 19.552 20.0453 18.7716C18.7595 17.9913 17.6703 16.9257 16.862 15.6573C16.0537 14.3889 15.5479 12.9516 15.3837 11.4565C15.2194 9.96145 15.4012 8.44863 15.9149 7.035C15.9586 6.92185 15.9746 6.79989 15.9616 6.67929C15.9486 6.55869 15.907 6.44294 15.8402 6.34168C15.7735 6.24041 15.6835 6.15657 15.5777 6.09714C15.472 6.03771 15.3536 6.0044 15.2324 6Z" fill="#F6455C"/>
</svg>
