<svg width="10" height="12" viewBox="0 0 10 12" fill="none" xmlns="http://www.w3.org/2000/svg">
<g filter="url(#filter0_d_38_34)">
<path d="M4.92612 3.48099L1.14387 0.172038C0.698168 -0.218469 -5.10216e-05 0.0989037 -5.10216e-05 0.691562L-5.10216e-05 7.30947C-0.000164986 7.44211 0.0379558 7.57196 0.109746 7.68349C0.181537 7.79502 0.283954 7.88349 0.404732 7.93831C0.52551 7.99313 0.65953 8.01198 0.790743 7.99259C0.921955 7.9732 1.0448 7.9164 1.14456 7.82899L4.92543 4.52004C4.99954 4.45528 5.05893 4.37542 5.09963 4.28581C5.14032 4.1962 5.16138 4.09893 5.16138 4.00051C5.16138 3.9021 5.14032 3.80482 5.09963 3.71522C5.05893 3.62561 4.99954 3.54575 4.92543 3.48099H4.92612Z" fill="#2E293Dff"/>
</g>
<defs>
<filter id="filter0_d_38_34" x="-6.10352e-05" y="0" width="9.16144" height="12" filterUnits="userSpaceOnUse" color-interpolation-filters="sRGB">
<feFlood flood-opacity="0" result="BackgroundImageFix"/>
<feColorMatrix in="SourceAlpha" type="matrix" values="0 0 0 0 0 0 0 0 0 0 0 0 0 0 0 0 0 0 127 0" result="hardAlpha"/>
<feOffset dx="2" dy="2"/>
<feGaussianBlur stdDeviation="1"/>
<feComposite in2="hardAlpha" operator="out"/>
<feColorMatrix type="matrix" values="0 0 0 0 0 0 0 0 0 0 0 0 0 0 0 0 0 0 0.25 0"/>
<feBlend mode="normal" in2="BackgroundImageFix" result="effect1_dropShadow_38_34"/>
<feBlend mode="normal" in="SourceGraphic" in2="effect1_dropShadow_38_34" result="shape"/>
</filter>
</defs>
</svg>
