<svg width="25" height="24" viewBox="0 0 25 24" fill="none" xmlns="http://www.w3.org/2000/svg">
<path d="M24.4901 22.7448L17.6547 16.0408C19.2973 14.1067 20.1164 11.626 19.9416 9.11474C19.7668 6.60346 18.6116 4.25494 16.7163 2.55775C14.8209 0.86055 12.3314 -0.0546525 9.7656 0.00252659C7.19978 0.0597056 4.75522 1.08486 2.94044 2.86474C1.12567 4.64462 0.0804076 7.04217 0.0221074 9.55864C-0.0361928 12.0751 0.896955 14.5168 2.62743 16.3756C4.3579 18.2345 6.75247 19.3675 9.31299 19.5389C11.8735 19.7104 14.4028 18.907 16.3748 17.296L23.2103 24L24.4901 22.7448ZM1.86214 9.79659C1.86214 8.21643 2.3399 6.67176 3.235 5.35791C4.1301 4.04405 5.40234 3.02003 6.89084 2.41533C8.37934 1.81063 10.0172 1.65241 11.5974 1.96069C13.1776 2.26896 14.6291 3.02988 15.7684 4.14722C16.9076 5.26456 17.6834 6.68814 17.9978 8.23793C18.3121 9.78773 18.1508 11.3941 17.5342 12.854C16.9176 14.3139 15.8735 15.5617 14.5339 16.4395C13.1943 17.3174 11.6194 17.786 10.0082 17.786C7.84847 17.7837 5.77788 16.9412 4.25071 15.4434C2.72355 13.9456 1.86453 11.9148 1.86214 9.79659Z" fill="#F6455Cff"/>
</svg>
