<svg width="32" height="32" viewBox="0 0 32 32" fill="none" xmlns="http://www.w3.org/2000/svg">
<rect width="32" height="32" rx="10" fill="#F8F9FA"/>
<path d="M16 12.5714C16.6781 12.5714 17.341 12.7725 17.9048 13.1492C18.4686 13.526 18.9081 14.0615 19.1676 14.6879C19.4271 15.3144 19.495 16.0038 19.3627 16.6689C19.2304 17.334 18.9039 17.9449 18.4244 18.4244C17.9449 18.9039 17.334 19.2304 16.6689 19.3627C16.0038 19.495 15.3144 19.4271 14.6879 19.1676C14.0615 18.9081 13.526 18.4686 13.1492 17.9048C12.7725 17.341 12.5714 16.6781 12.5714 16C12.5726 15.091 12.9342 14.2196 13.5769 13.5769C14.2196 12.9341 15.091 12.5726 16 12.5714ZM16 10.8571C14.9828 10.8571 13.9885 11.1588 13.1428 11.7239C12.297 12.289 11.6379 13.0922 11.2486 14.0319C10.8594 14.9716 10.7575 16.0057 10.956 17.0033C11.1544 18.0009 11.6442 18.9173 12.3635 19.6365C13.0827 20.3558 13.9991 20.8456 14.9967 21.044C15.9943 21.2425 17.0284 21.1406 17.9681 20.7514C18.9078 20.3621 19.711 19.703 20.2761 18.8572C20.8412 18.0115 21.1429 17.0172 21.1429 16C21.1429 14.636 20.601 13.3279 19.6365 12.3635C18.6721 11.399 17.364 10.8571 16 10.8571ZM6.90914 8.12114L8.12286 6.90914L11.1271 9.91429L9.91429 11.1263L6.90914 8.12114ZM4 15.1429H8.28571V16.8571H4V15.1429ZM6.90914 23.8797L9.91429 20.8746L11.1263 22.0866L8.122 25.0917L6.90914 23.8797ZM15.1429 23.7143H16.8571V28H15.1429V23.7143ZM20.8746 22.0857L22.0866 20.8737L25.0917 23.8789L23.8797 25.0909L20.8746 22.0857ZM23.7143 15.1429H28V16.8571H23.7143V15.1429ZM20.8746 9.91343L23.8797 6.90829L25.0917 8.12029L22.0866 11.1254L20.8746 9.91343ZM15.1429 4H16.8571V8.28571H15.1429V4Z" fill="#38B000"/>
</svg>
