<svg width="21" height="21" viewBox="0 0 21 21" fill="none" xmlns="http://www.w3.org/2000/svg">
<path d="M10.5 7.5C11.0933 7.5 11.6734 7.67595 12.1667 8.00559C12.6601 8.33524 13.0446 8.80377 13.2716 9.35195C13.4987 9.90013 13.5581 10.5033 13.4424 11.0853C13.3266 11.6672 13.0409 12.2018 12.6213 12.6213C12.2018 13.0409 11.6672 13.3266 11.0853 13.4424C10.5033 13.5581 9.90013 13.4987 9.35195 13.2716C8.80377 13.0446 8.33524 12.6601 8.00559 12.1667C7.67595 11.6734 7.5 11.0933 7.5 10.5C7.50099 9.70465 7.81738 8.94217 8.37978 8.37978C8.94217 7.81738 9.70465 7.50099 10.5 7.5ZM10.5 6C9.60998 6 8.73995 6.26392 7.99993 6.75839C7.25991 7.25285 6.68314 7.95566 6.34254 8.77792C6.00195 9.60019 5.91283 10.505 6.08647 11.3779C6.2601 12.2508 6.68868 13.0526 7.31802 13.682C7.94736 14.3113 8.74918 14.7399 9.62209 14.9135C10.495 15.0872 11.3998 14.9981 12.2221 14.6575C13.0443 14.3169 13.7471 13.7401 14.2416 13.0001C14.7361 12.26 15 11.39 15 10.5C15 9.30653 14.5259 8.16193 13.682 7.31802C12.8381 6.47411 11.6935 6 10.5 6ZM2.5455 3.606L3.6075 2.5455L6.23625 5.175L5.175 6.2355L2.5455 3.606ZM0 9.75H3.75V11.25H0V9.75ZM2.5455 17.3948L5.175 14.7653L6.2355 15.8258L3.60675 18.4552L2.5455 17.3948ZM9.75 17.25H11.25V21H9.75V17.25ZM14.7653 15.825L15.8258 14.7645L18.4552 17.394L17.3948 18.4545L14.7653 15.825ZM17.25 9.75H21V11.25H17.25V9.75ZM14.7653 5.17425L17.3948 2.54475L18.4552 3.60525L15.8258 6.23475L14.7653 5.17425ZM9.75 0H11.25V3.75H9.75V0Z" fill="#F5F3F4"/>
</svg>
