<svg width="20" height="11" viewBox="0 0 20 11" fill="none" xmlns="http://www.w3.org/2000/svg">
<path d="M3.74656 2.392H0.546563V0.615999H9.42656V2.392H6.24256V11H3.74656V2.392ZM10.8622 0.615999H15.0222C16.0355 0.615999 16.8355 0.685333 17.4222 0.823999C18.0195 0.962666 18.4515 1.208 18.7182 1.56C18.9955 1.90133 19.1342 2.38133 19.1342 3V4.968C19.1342 5.65067 18.9849 6.184 18.6862 6.568C18.3982 6.952 17.9342 7.224 17.2942 7.384C16.6649 7.544 15.8115 7.624 14.7342 7.624H13.3582V11H10.8622V0.615999ZM14.9422 5.912C15.5929 5.912 16.0515 5.83733 16.3182 5.688C16.5849 5.528 16.7182 5.26133 16.7182 4.888V3.224C16.7182 2.88267 16.5902 2.65867 16.3342 2.552C16.0889 2.44533 15.6142 2.392 14.9102 2.392H13.3582V5.912H14.9422Z" fill="#F8F9FA"/>
</svg>
