<svg width="128" height="128" viewBox="0 0 128 128" fill="none" xmlns="http://www.w3.org/2000/svg">
<rect x="2" y="2" width="124" height="124" rx="13" fill="#F5F3F4" stroke="#161A1D" stroke-width="4"/>
<circle cx="64" cy="64" r="15" fill="#A4161A"/>
<path d="M77.2116 53.9908C77.3987 53.849 77.6657 53.8855 77.8027 54.076C80.3457 57.6127 81.4372 61.9966 80.8406 66.3224C80.2247 70.7889 77.8597 74.8276 74.2659 77.5503C70.6721 80.273 66.144 81.4566 61.6776 80.8406C57.3517 80.244 53.4269 78.0067 50.7105 74.6014C50.5642 74.4179 50.6013 74.151 50.7884 74.0093V74.0093C50.9755 73.8675 51.2417 73.9047 51.3883 74.088C53.9683 77.3137 57.6911 79.4328 61.7937 79.9986C66.0368 80.5837 70.3385 79.4594 73.7526 76.8728C77.1667 74.2863 79.4134 70.4494 79.9986 66.2063C80.5644 62.1038 79.532 57.9464 77.125 54.5895C76.9882 54.3988 77.0245 54.1325 77.2116 53.9908V53.9908Z" fill="#161A1D"/>
</svg>
